<svg preserveAspectRatio="none" overflow="visible" style="display: block;" width="72" height="72" viewBox="0 0 72 72" fill="none" xmlns="http://www.w3.org/2000/svg">
<g id="Hand">
<path id="Vector" d="M54 33V18C54 14.7 51.3 12 48 12C44.7 12 42 14.7 42 18" stroke="#047857" stroke-width="6" stroke-linecap="round" stroke-linejoin="round"/>
<path id="Vector_2" d="M42 30V12C42 8.7 39.3 6 36 6C32.7 6 30 8.7 30 12V18" stroke="#047857" stroke-width="6" stroke-linecap="round" stroke-linejoin="round"/>
<path id="Vector_3" d="M30 31.5V18C30 14.7 27.3 12 24 12C20.7 12 18 14.7 18 18V42" stroke="#047857" stroke-width="6" stroke-linecap="round" stroke-linejoin="round"/>
<path id="Vector_4" d="M54 24C54 20.7 56.7 18 60 18C63.3 18 66 20.7 66 24V42C66 55.2 55.2 66 42 66H36C27.6 66 22.5 63.42 18.03 58.98L7.23 48.18C4.89 45.84 4.89 42.06 7.23 39.72C9.57 37.38 13.38 37.38 15.72 39.72L21 45" stroke="#047857" stroke-width="6" stroke-linecap="round" stroke-linejoin="round"/>
</g>
</svg>
