<svg preserveAspectRatio="none" overflow="visible" style="display: block;" width="420" height="420" viewBox="0 0 420 420" fill="none" xmlns="http://www.w3.org/2000/svg">
<g id="Glow">
<circle id="Ring 1" cx="210" cy="210" r="210" fill="white" fill-opacity="0.04"/>
<circle id="Ring 2" cx="210" cy="210" r="165" fill="white" fill-opacity="0.07"/>
<circle id="Ring 3" cx="210" cy="210" r="125" fill="white" fill-opacity="0.11"/>
<g id="Soft light" filter="url(#filter0_f_0_5)">
<circle cx="210" cy="210" r="95" fill="white" fill-opacity="0.55"/>
</g>
<path id="Sparkle 1" d="M78 96L79.5839 102.416L86 104L79.5839 105.584L78 112L76.4161 105.584L70 104L76.4161 102.416L78 96Z" fill="white" fill-opacity="0.55"/>
<path id="Sparkle 2" d="M344 120L345.188 124.812L350 126L345.188 127.188L344 132L342.812 127.188L338 126L342.812 124.812L344 120Z" fill="white" fill-opacity="0.45"/>
<path id="Sparkle 3" d="M97 318L97.9899 322.01L102 323L97.9899 323.99L97 328L96.0101 323.99L92 323L96.0101 322.01L97 318Z" fill="white" fill-opacity="0.35"/>
<path id="Sparkle 4" d="M331 300L332.782 307.218L340 309L332.782 310.782L331 318L329.218 310.782L322 309L329.218 307.218L331 300Z" fill="white" fill-opacity="0.5"/>
<g id="Badge mark / &#236;&#160;&#149;&#237;&#153;&#149;&#235;&#143;&#132; 90%" filter="url(#filter1_d_0_5)">
<rect x="144.946" y="210" width="92" height="92" rx="16" transform="rotate(-45 144.946 210)" fill="#10B981"/>
</g>
</g>
<defs>
<filter id="filter0_f_0_5" x="69" y="69" width="282" height="282" filterUnits="userSpaceOnUse" color-interpolation-filters="sRGB">
<feFlood flood-opacity="0" result="BackgroundImageFix"/>
<feBlend mode="normal" in="SourceGraphic" in2="BackgroundImageFix" result="shape"/>
<feGaussianBlur stdDeviation="23" result="effect1_foregroundBlur_0_5"/>
</filter>
<filter id="filter1_d_0_5" x="131.574" y="141.574" width="156.853" height="156.853" filterUnits="userSpaceOnUse" color-interpolation-filters="sRGB">
<feFlood flood-opacity="0" result="BackgroundImageFix"/>
<feColorMatrix in="SourceAlpha" type="matrix" values="0 0 0 0 0 0 0 0 0 0 0 0 0 0 0 0 0 0 127 0" result="hardAlpha"/>
<feMorphology radius="4" operator="erode" in="SourceAlpha" result="effect1_dropShadow_0_5"/>
<feOffset dy="10"/>
<feGaussianBlur stdDeviation="12"/>
<feColorMatrix type="matrix" values="0 0 0 0 0.02 0 0 0 0 0.3 0 0 0 0 0.2 0 0 0 0.35 0"/>
<feBlend mode="normal" in2="BackgroundImageFix" result="effect1_dropShadow_0_5"/>
<feBlend mode="normal" in="SourceGraphic" in2="effect1_dropShadow_0_5" result="shape"/>
</filter>
</defs>
</svg>
